# xmcd
#
# Track frame offsets:
#	150
#	15737
#	27231
#	42104
#	57643
#	70677
#	83530
#	102288
#	114493
#	129562
#	148727
#	162142
#	199035
#
# Disc length: 2943 seconds
#
# Revision: 0
# Processed by: cddbd v1.5.2PL0 Copyright (c) Steve Scherf et al.
# Submitted via: EZCDAudioConverter 1.2.5.1
#
DISCID=aa0b7d0d
DTITLE=Teeny Tucker - Put On Your Red Dress Baby
DYEAR=2018
DGENRE=Blues
TTITLE0=Church House Prayer
TTITLE1=Love Don't Hurt
TTITLE2=Learn How To Love Me
TTITLE3=I Sing The Blues
TTITLE4=Heart, Mind and Soul
TTITLE5=One Kind Favor
TTITLE6=Put on Your Red Dress Baby
TTITLE7=Don't Look Back (in the rearview mirror)
TTITLE8=Crack The Door
TTITLE9=From The Skies
TTITLE10=Jump Back
TTITLE11=I'd Rather Go Blind (Long Version)
TTITLE12=I'd Rather Go Blind (Short Version)
EXTD=
EXTT0=
EXTT1=
EXTT2=
EXTT3=
EXTT4=
EXTT5=
EXTT6=
EXTT7=
EXTT8=
EXTT9=
EXTT10=
EXTT11=
EXTT12=
PLAYORDER=
